<svg id="Layer_1" data-name="Layer 1" xmlns="http://www.w3.org/2000/svg" viewBox="0 0 704.62 61.27">
                                
                                
        <defs>
            <style>
            

                .cls-1{
                    stroke:#e2e2e8;
                    stroke-width:1;
                    stroke-linecap:round;
                    stroke-linejoin:round;
                    stroke-miterlimit:10;
                    stroke-dasharray: 500;
                    stroke-dashoffset: 0;
                    animation: draw 5s ease-out forwards;
                }

                @-webkit-keyframes draw{
                    from{
                    stroke-dashoffset: 500;
                    fill: black;
                    

                    }to{
                    stroke-dashoffset: 0;
                    fill:#e2e2e8;                
                    
                    }
                }
                
                                        
            </style>
        </defs>
                                
                                
        <title>tuchowsky</title>
        <path class="cls-1 lettterA" d="M78.67,99.93H57.78v-9.1h51v9.1H87.89V151.3H78.67Z" transform="translate(-57.78 -90.41)"/>
                                
        <path class="cls-1" d="M135.14,90.83v38.5q0,6.44,4.07,9.72t12,3.36q7.93,0,12.09-3.36t4.07-9.72V90.83h9.22v38.5q0,10.72-7.35,16.7-6.77,5.44-18,5.44h-.17q-11.13,0-17.82-5.44-7.35-6-7.35-16.7V90.83Z" transform="translate(-57.78 -90.41)"/>
                                
        <path class="cls-1" d="M252.13,108q-4.2-5.44-8.39-7a25.19,25.19,0,0,0-8.6-1.54h-.08q-11.21,0-17,5.69-5.69,5.52-5.69,15.78T218,136.72q5.81,5.69,17,5.69h.08a25.82,25.82,0,0,0,8.6-1.5q4.19-1.58,8.43-7.06l7.77,5.15q-6.31,7.89-12.79,10.34a33.57,33.57,0,0,1-12,2.12h-.25q-14.91,0-23.38-8.22t-8.43-22.3q0-14.12,8.43-22.3t23.38-8.22h.25a33,33,0,0,1,12,2.16Q253.66,95,259.93,103Z" transform="translate(-57.78 -90.41)"/>
                                
        <path class="cls-1" d="M326.71,116.37V90.83H336V151.3h-9.26V125.47H294.47V151.3h-9.22V90.83h9.22v25.54Z" transform="translate(-57.78 -90.41)"/>
                                
        <path class="cls-1" d="M369.93,98.64q8.51-8.22,23.55-8.22h.08q15.08,0,23.59,8.27t8.47,22.26q0,14.08-8.47,22.26t-23.59,8.27h-.08q-15,0-23.55-8.22-8.39-8.18-8.39-22.3T369.93,98.64Zm6.44,38q5.9,5.73,17.2,5.73t17.2-5.73q5.65-5.48,5.65-15.74t-5.69-15.74q-5.86-5.69-17.15-5.73t-17.2,5.73q-5.65,5.48-5.65,15.74T376.37,136.68Z" transform="translate(-57.78 -90.41)"/>
                                
        <path class="cls-1" d="M584.62,142.58h.12q14.29,0,14.29-8.43,0-3.45-3.65-5.32-2.74-1.41-11.51-3.24-9.55-2-13.67-4.36a14.18,14.18,0,0,1-7.6-13,15.24,15.24,0,0,1,7.68-13.79q5.94-3.74,14.91-3.74a29.56,29.56,0,0,1,13.46,2.91q7.56,3.74,9.8,15.08l-9.05,1.5q-1.41-6.81-5.11-8.56a21.16,21.16,0,0,0-9.1-1.79q-6.15,0-9.84,2.16a6.77,6.77,0,0,0-3.53,6.23q0,3.57,3.66,5.48,2.82,1.45,11.5,3.28,9.59,2,13.62,4.32a13.87,13.87,0,0,1,7.64,12.88q0,17.53-23.63,17.53a34.22,34.22,0,0,1-12-2.16q-6.52-2.45-12.71-10.3l7.6-5.23q4.32,5.53,8.51,7.1A25.7,25.7,0,0,0,584.62,142.58Z" transform="translate(-57.78 -90.41)"/>
                                
        <path class="cls-1" d="M643.62,138.18v13.29H634.4V91h9.22v34.39L673.4,91h11.71L659,120.69l26.12,30.78H671.32L652.8,127.71Z" transform="translate(-57.78 -90.41)"/>
                                
        <path class="cls-1" d="M734.86,129.83v21.64h-9.26V129.83L698.1,91h11.21l20.93,29.49L751.14,91h11.26Z" transform="translate(-57.78 -90.41)"/><polygon class="cls-1" points="438.61 15.17 413.9 58.37 381.5 1.45 380.63 1.95 413.9 60.39 439.48 15.67 438.61 15.17"/><path class="cls-1" d="M493.06,127l-12.9,22.52.87.5,12.79-22.33A5.12,5.12,0,0,1,493.06,127Z" transform="translate(-57.78 -90.41)"/><path class="cls-1" d="M505.75,106.87l-.87-.5-7,12.24a5.05,5.05,0,0,1,1,.31Z" transform="translate(-57.78 -90.41)"/>
                                
        <path class="cls-1" d="M546.8,93.15l-.86-.5L513.25,148.8,500.61,127a5.12,5.12,0,0,1-.75.69l13.4,23.1Z" transform="translate(-57.78 -90.41)"/>
                                
        <path class="cls-1" d="M500.61,127a5.1,5.1,0,1,0-7.54,0,5.12,5.12,0,0,0,.76.69,5,5,0,0,0,6,0A5.12,5.12,0,0,0,500.61,127Z" transform="translate(-57.78 -90.41)"/>

</svg>